# xmcd
#
# Track frame offsets:
# 150
# 14100
# 30075
# 41775
# 53475
# 65775
# 83250
# 93150
# 101850
# 115275
# 126300
# 140250
# 151875
#
# Disc length: 2199 seconds
#
#
# Revision: 2
# Processed by: cddbd v1.5PL3 Copyright (c) Steve Scherf et al.
# Submitted via: FreeRIP 2.35 
#
DISCID=a308950d
DTITLE=Loretta Lynn - Loetta Lynn: All Time Gospel Favorites-Disk One
DYEAR=1900
DGENRE=
TTITLE0=How Great Thou Art
TTITLE1=Precious Memories
TTITLE2=In the Sweet Bye and Bye
TTITLE3=Amazing Grace
TTITLE4=When the Roll Is Called Up Yonder
TTITLE5=What a Friend We Have In Jesus
TTITLE6=Wings of a Dove
TTITLE7=Are You Washed in the Blood
TTITLE8=Just a Closer Walk with Thee
TTITLE9=Swing Low, Sweet Chariot
TTITLE10=Peace in the Valley
TTITLE11=I Feel Like Traveling On
TTITLE12=Old Rugged Cross
EXTD=
EXTT0=Loretta Lynn
EXTT1=Loretta Lynn
EXTT2=Loretta Lynn
EXTT3=Loretta Lynn
EXTT4=Loretta Lynn
EXTT5=Loretta Lynn
EXTT6=Loretta Lynn
EXTT7=Loretta Lynn
EXTT8=Loretta Lynn
EXTT9=Loretta Lynn
EXTT10=Loretta Lynn
EXTT11=Loretta Lynn
EXTT12=Loretta Lynn
PLAYORDER=
